HIERARCHY
ROOT Hips
{
	OFFSET 0.000000 0.000000 0.000000
	CHANNELS 6 Xposition Yposition Zposition Zrotation Yrotation Xrotation 
	JOINT LHipJoint
	{
		OFFSET 0.000000 0.000000 0.000000
		CHANNELS 3 Zrotation Yrotation Xrotation
		JOINT LeftUpLeg
		{
			OFFSET 1.363060 -1.794630 0.839290
			CHANNELS 3 Zrotation Yrotation Xrotation
			JOINT LeftLeg
			{
				OFFSET 2.448110 -6.726130 0.000000
				CHANNELS 3 Zrotation Yrotation Xrotation
				JOINT LeftFoot
				{
					OFFSET 2.562200 -7.039590 0.000000
					CHANNELS 3 Zrotation Yrotation Xrotation
					JOINT LeftToeBase
					{
						OFFSET 0.157640 -0.433110 2.322550
						CHANNELS 3 Zrotation Yrotation Xrotation
						End Site
						{
							OFFSET 0.000000 0.000000 0.000000
						}
					}
				}
			}
		}
	}
	JOINT RHipJoint
	{
		OFFSET 0.000000 0.000000 0.000000
		CHANNELS 3 Zrotation Yrotation Xrotation
		JOINT RightUpLeg
		{
			OFFSET -1.305520 -1.794630 0.839290
			CHANNELS 3 Zrotation Yrotation Xrotation
			JOINT RightLeg
			{
				OFFSET -2.542530 -6.985550 0.000000
				CHANNELS 3 Zrotation Yrotation Xrotation
				JOINT RightFoot
				{
					OFFSET -2.568260 -7.056230 0.000000
					CHANNELS 3 Zrotation Yrotation Xrotation
					JOINT RightToeBase
					{
						OFFSET -0.164730 -0.452590 2.363150
						CHANNELS 3 Zrotation Yrotation Xrotation
						End Site
						{
							OFFSET 0.000000 0.000000 0.000000
						}
					}
				}
			}
		}
	}
	JOINT LowerBack
	{
		OFFSET 0.000000 0.000000 0.000000
		CHANNELS 3 Zrotation Yrotation Xrotation
		JOINT Spine
		{
			OFFSET 0.028270 2.035590 -0.193380
			CHANNELS 3 Zrotation Yrotation Xrotation
			JOINT Spine1
			{
				OFFSET 0.056720 2.048850 -0.042750
				CHANNELS 3 Zrotation Yrotation Xrotation
				JOINT Neck
				{
					OFFSET 0.000000 0.000000 0.000000
					CHANNELS 3 Zrotation Yrotation Xrotation
					JOINT Neck1
					{
						OFFSET -0.054170 1.746240 0.172020
						CHANNELS 3 Zrotation Yrotation Xrotation
						JOINT Head
						{
							OFFSET 0.104070 1.761360 -0.123970
							CHANNELS 3 Zrotation Yrotation Xrotation
							End Site
							{
								OFFSET 0.000000 0.000000 0.000000
							}
						}
					}
				}
				JOINT LeftShoulder
				{
					OFFSET 0.000000 0.000000 0.000000
					CHANNELS 3 Zrotation Yrotation Xrotation
					JOINT LeftArm
					{
						OFFSET 3.362410 1.200890 -0.311210
						CHANNELS 3 Zrotation Yrotation Xrotation
						JOINT LeftForeArm
						{
							OFFSET 4.983000 -0.000000 -0.000000
							CHANNELS 3 Zrotation Yrotation Xrotation
							JOINT LeftHand
							{
								OFFSET 3.483560 -0.000000 -0.000000
								CHANNELS 3 Zrotation Yrotation Xrotation
								JOINT LeftFingerBase
								{
									OFFSET 0.000000 0.000000 0.000000
									CHANNELS 3 Zrotation Yrotation Xrotation
									JOINT LeftHandIndex1
									{
										OFFSET 0.715260 -0.000000 -0.000000
										CHANNELS 3 Zrotation Yrotation Xrotation
										End Site
										{
											OFFSET 0.000000 0.000000 0.000000
										}
									}
								}
								JOINT LThumb
								{
									OFFSET 0.000000 0.000000 0.000000
									CHANNELS 3 Zrotation Yrotation Xrotation
									End Site
									{
										OFFSET 0.000000 0.000000 0.000000
									}
								}
							}
						}
					}
				}
				JOINT RightShoulder
				{
					OFFSET 0.000000 0.000000 0.000000
					CHANNELS 3 Zrotation Yrotation Xrotation
					JOINT RightArm
					{
						OFFSET -3.136600 1.374050 -0.404650
						CHANNELS 3 Zrotation Yrotation Xrotation
						JOINT RightForeArm
						{
							OFFSET -5.241900 -0.000000 -0.000000
							CHANNELS 3 Zrotation Yrotation Xrotation
							JOINT RightHand
							{
								OFFSET -3.444170 -0.000000 -0.000000
								CHANNELS 3 Zrotation Yrotation Xrotation
								JOINT RightFingerBase
								{
									OFFSET 0.000000 0.000000 0.000000
									CHANNELS 3 Zrotation Yrotation Xrotation
									JOINT RightHandIndex1
									{
										OFFSET -0.622530 -0.000000 -0.000000
										CHANNELS 3 Zrotation Yrotation Xrotation
										End Site
										{
											OFFSET 0.000000 0.000000 0.000000
										}
									}
								}
								JOINT RThumb
								{
									OFFSET 0.000000 0.000000 0.000000
									CHANNELS 3 Zrotation Yrotation Xrotation
									End Site
									{
										OFFSET 0.000000 0.000000 0.000000
									}
								}
							}
						}
					}
				}
			}
		}
	}
}
MOTION
Frames: 8
Frame Time: 0.008333
0.941523 18.057386 -9.649917 -0.063957 4.060217 5.650965 -5.965678 -1.622834 1.612546 -9.993883 -3.603176 -7.177219 0.451241 8.893839 23.194188 -3.259790 14.068877 1.125727 0.892900 -6.022800 -16.850600 4.083431 2.369381 -1.337302 6.726903 -0.818017 -29.575665 -1.049404 -8.480047 22.412560 3.903656 -16.528792 1.997122 -0.454800 4.326300 -11.996400 -3.030389 -0.575216 11.996125 2.265089 -0.926329 1.290566 4.171935 -0.572610 -3.100318 6.893641 1.390883 -24.611646 -2.466668 0.565675 16.616766 -4.997000 0.504200 12.279000 3.474865 -0.893859 0.096482 -53.429096 3.656398 -23.634657 21.718305 -31.356458 -5.459829 0.300715 0.521019 -0.623015 16.742781 3.443510 0.857200 -7.125000 0.000000 0.000000 -8.243400 32.931400 2.459300 -2.410370 1.390392 0.458517 42.115528 -6.496869 -24.520960 -20.093533 29.207537 -5.168861 0.129217 -0.476669 -5.416696 -20.223428 -5.590922 1.872700 7.125000 0.000000 0.000000 5.304100 -35.341800 1.262900 
0.927777 18.050114 -9.567937 0.182739 4.153150 5.647754 -5.974051 -1.605685 1.657967 -10.193748 -3.511548 -6.801164 0.402266 8.808351 22.926561 -3.211370 13.934148 1.141271 0.909500 -6.077100 -17.008200 4.086914 2.362159 -1.358147 6.365733 -0.513238 -29.436912 -0.965204 -8.284227 21.797738 4.100388 -17.118217 1.512214 -0.462300 4.361500 -12.095900 -3.081794 -0.559161 11.917882 2.293835 -0.909331 1.269163 4.224126 -0.564347 -3.091073 6.799887 1.347469 -24.591886 -2.574984 0.560729 16.650833 -5.029000 0.481900 12.289400 3.474964 -0.895728 0.098104 -53.026905 3.587683 -23.596730 21.870480 -31.532283 -5.531668 0.302894 0.522837 -0.680033 16.870677 3.415609 0.855200 -7.125000 0.000000 0.000000 -8.139400 32.904600 2.433100 -2.410847 1.384426 0.456054 42.304231 -6.454042 -24.639955 -19.999431 29.096260 -5.124504 0.127569 -0.476426 -5.235143 -20.189313 -5.551068 1.854900 7.125000 0.000000 0.000000 5.328700 -35.298900 1.274400 
0.913533 18.041249 -9.485160 0.428402 4.245809 5.632612 -5.978116 -1.589157 1.702113 -10.388520 -3.394112 -6.437569 0.360229 8.734385 22.696363 -3.152633 13.764432 1.161989 0.929700 -6.142400 -17.198200 4.085773 2.354479 -1.376526 6.043980 -0.271688 -29.316746 -0.907309 -8.139953 21.342114 4.299187 -17.709679 0.991387 -0.463700 4.367900 -12.114100 -3.111237 -0.545512 11.843154 2.326458 -0.892389 1.254439 4.269072 -0.556938 -3.075516 6.703227 1.303622 -24.604123 -2.687889 0.559551 16.714730 -5.062800 0.461500 12.319600 3.474599 -0.895909 0.099156 -52.621179 3.531247 -23.578963 22.026440 -31.711522 -5.605706 0.305336 0.524540 -0.736451 17.007731 3.379124 0.851100 -7.125000 0.000000 0.000000 -8.027300 32.869100 2.406000 -2.411419 1.380468 0.453620 42.480993 -6.409076 -24.765696 -19.920477 29.003087 -5.088102 0.126631 -0.476397 -5.105543 -20.196647 -5.566983 1.861600 7.125000 0.000000 0.000000 5.324000 -35.316400 1.271000 
0.898989 18.030690 -9.401786 0.686977 4.339089 5.608779 -5.978143 -1.574549 1.743017 -10.593559 -3.263100 -6.093310 0.327888 8.679064 22.525370 -3.084641 13.560179 1.169993 0.953100 -6.217000 -17.415200 4.078710 2.346805 -1.392816 5.747512 -0.100422 -29.228457 -0.876642 -8.052519 21.062016 4.483396 -18.253381 0.476549 -0.458700 4.344400 -12.047500 -3.129280 -0.531398 11.774767 2.357917 -0.873666 1.240937 4.306822 -0.548325 -3.062043 6.602805 1.258973 -24.621240 -2.803187 0.559814 16.784302 -5.097000 0.441300 12.353600 3.474145 -0.895793 0.099976 -52.214862 3.478294 -23.592176 22.183119 -31.891073 -5.680480 0.307649 0.526044 -0.789705 17.137830 3.335647 0.844400 -7.125000 0.000000 0.000000 -7.920100 32.826400 2.381500 -2.411879 1.377323 0.451127 42.647547 -6.375151 -24.894522 -19.855502 28.926493 -5.058733 0.126127 -0.476528 -5.023874 -20.233364 -5.609406 1.880900 7.125000 0.000000 0.000000 5.297600 -35.363000 1.258600 
0.883849 18.018438 -9.316917 0.963661 4.435502 5.569253 -5.974214 -1.561382 1.780934 -10.814087 -3.123688 -5.757244 0.305636 8.644009 22.417336 -3.008792 13.326189 1.162578 0.980400 -6.303000 -17.666000 4.065921 2.338651 -1.406341 5.469663 0.003010 -29.160439 -0.871749 -8.021800 20.955296 4.642629 -18.720215 0.006676 -0.448600 4.296900 -11.913500 -3.147916 -0.520060 11.703418 2.389269 -0.858714 1.234997 4.346045 -0.542031 -3.037856 6.479693 1.206481 -24.622186 -2.902075 0.555886 16.849719 -5.120500 0.419200 12.381700 3.473273 -0.895525 0.100555 -51.811774 3.444413 -23.619016 22.345934 -32.076541 -5.758221 0.309366 0.527686 -0.876425 17.250642 3.288196 0.835400 -7.125000 0.000000 0.000000 -7.826200 32.779000 2.361900 -2.412254 1.374899 0.448729 42.799730 -6.349798 -25.006773 -19.804475 28.866711 -5.036068 0.125876 -0.476688 -4.964807 -20.274920 -5.662046 1.904400 7.125000 0.000000 0.000000 5.268000 -35.420600 1.244100 
0.868010 18.004991 -9.231152 1.244311 4.544104 5.520217 -5.967087 -1.549083 1.816279 -11.030728 -2.979786 -5.429904 0.290001 8.622160 22.350576 -2.922853 13.056195 1.159382 1.010500 -6.396100 -17.938200 4.049669 2.329648 -1.416330 5.220098 0.047276 -29.098285 -0.886045 -8.034909 20.981036 4.771605 -19.098965 -0.375434 -0.435200 4.233100 -11.733500 -3.150044 -0.513801 11.631917 2.423405 -0.848604 1.231015 4.379856 -0.538051 -3.011510 6.359060 1.157979 -24.600171 -3.005779 0.556434 16.901510 -5.145400 0.398300 12.400000 3.472890 -0.896456 0.101308 -51.409068 3.417561 -23.667703 22.503298 -32.255223 -5.833713 0.310527 0.530464 -0.979693 17.355269 3.280964 0.837700 -7.125000 0.000000 0.000000 -7.742700 32.771800 2.337600 -2.412195 1.371470 0.446414 42.940306 -6.323310 -25.131770 -19.755978 28.809633 -5.014372 0.125363 -0.476753 -4.900012 -20.304885 -5.685585 1.916200 7.125000 0.000000 0.000000 5.245400 -35.446900 1.235400 
0.851176 17.985367 -9.143893 1.538252 4.663402 5.459274 -5.956842 -1.537972 1.848636 -11.252799 -2.833811 -5.110613 0.282955 8.617866 22.338450 -2.828343 12.754145 1.151386 1.043700 -6.497000 -18.233400 4.029793 2.319501 -1.423040 4.984183 0.039283 -29.039036 -0.918497 -8.088750 21.129733 4.864753 -19.373877 -0.640404 -0.422000 4.169300 -11.553500 -3.148689 -0.514190 11.562410 2.456502 -0.847271 1.226152 4.411253 -0.537632 -2.987072 6.256377 1.125878 -24.542259 -3.128705 0.573642 16.928223 -5.178000 0.383100 12.402700 3.473301 -0.900650 0.102511 -51.014051 3.425715 -23.728829 22.663297 -32.435197 -5.910269 0.310916 0.533256 -1.091027 17.430810 3.271348 0.837900 -7.125000 0.000000 0.000000 -7.681800 32.761400 2.320900 -2.411187 1.366193 0.444182 43.068283 -6.305923 -25.233792 -19.709000 28.754326 -4.993105 0.124611 -0.476762 -4.802045 -20.324105 -5.693348 1.921100 7.125000 0.000000 0.000000 5.230200 -35.456200 1.230600 
0.833844 17.969529 -9.055040 1.839055 4.785871 5.388999 -5.944437 -1.527914 1.877356 -11.477945 -2.690227 -4.800019 0.283729 8.629882 22.375270 -2.729080 12.434079 1.149098 1.079400 -6.603800 -18.546900 4.008732 2.307703 -1.424729 4.762392 0.005232 -28.951429 -0.963959 -8.173142 21.371345 4.920551 -19.538264 -0.799057 -0.408100 4.100800 -11.360600 -3.135582 -0.517384 11.487291 2.489543 -0.848628 1.225632 4.435890 -0.538692 -2.954727 6.150444 1.101455 -24.479528 -3.254384 0.601586 16.938151 -5.209200 0.370900 12.398300 3.474200 -0.905962 0.103965 -50.616876 3.447981 -23.784175 22.816282 -32.606086 -5.983647 0.310870 0.537350 -1.219379 17.503604 3.306327 0.851200 -7.125000 0.000000 0.000000 -7.627400 32.796000 2.297800 -2.409833 1.360296 0.442140 43.185682 -6.293147 -25.332411 -19.660701 28.697191 -4.971018 0.123429 -0.476712 -4.668060 -20.333046 -5.669795 1.913400 7.125000 0.000000 0.000000 5.220400 -35.432100 1.231400 
